<svg width="24" height="24" viewBox="0 0 24 24" fill="none" xmlns="http://www.w3.org/2000/svg">
    <path
        d="M0 5C0 2.23858 2.23858 0 5 0H19C21.7614 0 24 2.23858 24 5V19C24 21.7614 21.7614 24 19 24H5C2.23858 24 0 21.7614 0 19V5Z"
        fill="white" />
    <path
        d="M10.1094 9.71094C10.0938 9.58594 10.0703 9.42969 10.0391 9.24219C10.0234 9.03906 10 8.85156 9.96875 8.67969C9.95312 8.49219 9.9375 8.33594 9.92188 8.21094C9.90625 8.08594 9.89844 8.02344 9.89844 8.02344H9.71094L7.03906 8.82031C6.96094 8.94531 6.82812 9.00781 6.64062 9.00781C6.46875 9.00781 6.33594 9.00781 6.24219 9.00781C6.02344 9.00781 5.79688 8.91406 5.5625 8.72656C5.34375 8.52344 5.23438 8.30469 5.23438 8.07031C5.23438 7.89844 5.28906 7.73437 5.39844 7.57812C5.52344 7.40625 5.67188 7.28906 5.84375 7.22656L9.61719 6.03125C9.66406 5.85937 9.75 5.6875 9.875 5.51562C10.0156 5.32812 10.1953 5.23438 10.4141 5.23438C10.6328 5.23438 10.8125 5.28906 10.9531 5.39844C11.1094 5.50781 11.2812 5.59375 11.4688 5.65625C11.6094 5.64063 11.8438 5.59375 12.1719 5.51562C12.5 5.4375 12.8438 5.35938 13.2031 5.28125C13.5781 5.1875 13.9297 5.10156 14.2578 5.02344C14.5859 4.94531 14.8125 4.89063 14.9375 4.85938C15.125 4.82812 15.2656 4.78906 15.3594 4.74219C15.4531 4.69531 15.6016 4.67188 15.8047 4.67188C16.0703 4.67188 16.3438 4.75 16.625 4.90625C16.9062 5.0625 17.0469 5.29687 17.0469 5.60938C17.0469 5.8125 16.9766 5.99219 16.8359 6.14844C16.6953 6.28906 16.5234 6.38281 16.3203 6.42969L11.8672 7.55469V7.76562C11.8672 8.25 11.9062 8.72656 11.9844 9.19531C12.0781 9.66406 12.1094 10.1328 12.0781 10.6016L12.875 17.8438V18.3594C12.875 18.5469 12.8672 18.7422 12.8516 18.9453C12.8516 19.1328 12.8203 19.3047 12.7578 19.4609C12.7109 19.6172 12.625 19.75 12.5 19.8594C12.375 19.9531 12.1875 20 11.9375 20C11.75 20 11.5469 19.9219 11.3281 19.7656C11.125 19.6094 11.0156 19.4219 11 19.2031L10.1094 9.89844V9.71094ZM16.0391 19.1094C16.0391 18.8906 16.1172 18.6875 16.2734 18.5C16.4453 18.3125 16.6406 18.2188 16.8594 18.2188C17.125 18.2188 17.3359 18.2891 17.4922 18.4297C17.6641 18.5703 17.8281 18.7266 17.9844 18.8984V18.9688C17.9844 19.2344 17.8906 19.4766 17.7031 19.6953C17.5312 19.8984 17.2969 20 17 20C16.7969 20 16.5859 19.9062 16.3672 19.7188C16.1484 19.5312 16.0391 19.3281 16.0391 19.1094Z"
        fill="black" />
</svg>
    